:SAMPLES-PER-SECOND 24
:FULLY-SPECIFIED
:DEGREES
239
root  -0.954738 34.4004 14.1762 177.671 -50.5238 171.128
RightUpLeg  -21.2815 -22.6871 -29.5536
RightLeg  50.2225 5.09588 6.19373
RightFoot  -6.42494 -0.563572 12.0636
RightToes  -1.46203e-006 3.27826e-006 1.63871e-007
Spine  6.8302 -2.1652 -11.0344
Spine1  18.1851 -5.1607 3.46176
HEad  -23.91 -27.3345 14.0105
LeftShoulder1  1.85899 -3.85763 -18.7081
LeftArm  44.3299 -36.8586 -80.7251
LeftForeArm  71.1865 -79.3422 -71.1212
LeftHand  -0.192866 4.32608 20.3357
RightShoulder  3.29152 5.68078 29.929
RightArm  -27.1095 7.60664 18.9584
RightForeArm  151.455 70.0927 150.729
RightHand  -0.300019 -3.7288 -20.3792
LeftUpLeg  -3.71088 8.98782 17.4156
LeftLeg  46.8816 -4.99619 -5.24289
LeftFoot  -25.9298 -3.04992 -24.6872
LeftToes  1.24767e-006 1.47042e-008 1.32732e-009
240
root  -1.23493 35.0099 14.8978 178.686 -53.3647 170.778
RightUpLeg  -17.8488 -20.3064 -30.6743
RightLeg  44.1379 2.96417 2.89728
RightFoot  -3.68252 -1.13599 16.2177
RightToes  -1.46203e-006 3.27826e-006 1.63871e-007
Spine  6.30823 -1.22816 -9.83247
Spine1  19.9218 -4.03269 3.33793
HEad  -26.1879 -30.221 15.5848
LeftShoulder1  2.05946 -3.95559 -21.2365
LeftArm  39.135 -24.003 -67.9757
LeftForeArm  75.7411 -79.5844 -73.2902
LeftHand  -0.1824 4.21619 17.2073
RightShoulder  3.95376 6.22756 34.747
RightArm  -20.4682 -7.19661 22.946
RightForeArm  143.108 75.9421 135.975
RightHand  0.0924935 -6.11507 -16.385
LeftUpLeg  -5.12388 10.2638 16.1371
LeftLeg  45.2893 -5.8232 -5.82357
LeftFoot  -23.695 -2.2429 -21.8074
LeftToes  1.24767e-006 1.47042e-008 1.32732e-009
241
root  -1.64484 37.1057 15.3895 178.727 -54.6392 172.509
RightUpLeg  -11.4979 -18.7808 -28.4746
RightLeg  28.6263 -2.68489 -1.6842
RightFoot  8.44756 -2.56744 15.3657
RightToes  -1.46203e-006 3.27826e-006 1.63871e-007
Spine  5.41565 -1.01404 -7.45688
Spine1  18.6679 -3.45581 4.14069
HEad  -22.3382 -32.2982 14.1675
LeftShoulder1  2.12811 -3.81646 -22.7893
LeftArm  32.9358 -6.75196 -56.4865
LeftForeArm  81.3102 -79.8191 -79.6071
LeftHand  -0.0517524 5.10132 16.8693
RightShoulder  4.2627 6.47832 36.7754
RightArm  -12.2274 -19.3938 28.1458
RightForeArm  98.4106 80.3186 88.3208
RightHand  0.488931 -9.12474 -15.7705
LeftUpLeg  -1.91241 10.1359 15.2166
LeftLeg  34.0386 -6.78679 -4.52164
LeftFoot  -15.422 -0.691607 -22.3822
LeftToes  1.24767e-006 1.47042e-008 1.32732e-009
242
root  -1.84468 39.3752 15.743 178.426 -57.3858 175.023
RightUpLeg  -5.11708 -16.7872 -25.587
RightLeg  14.2111 -5.23908 -1.38656
RightFoot  20.8393 -3.0483 11.0765
RightToes  -1.46203e-006 3.27826e-006 1.63871e-007
Spine  5.02775 -1.49573 -5.7934
Spine1  17.0171 -4.15815 6.30685
HEad  -19.9943 -33.4675 13.202
LeftShoulder1  2.02907 -3.59064 -22.2821
LeftArm  28.7 6.84469 -50.3029
LeftForeArm  97.4093 -80.1694 -91.6591
LeftHand  -0.0263004 5.28891 16.6121
RightShoulder  4.28534 6.5076 36.8707
RightArm  -3.73542 -28.8582 30.2312
RightForeArm  72.2223 79.3102 66.1852
RightHand  0.429477 -9.88457 -11.9341
LeftUpLeg  0.701577 8.31477 14.2572
LeftLeg  20.1594 -5.66536 -1.96616
LeftFoot  -1.26072 1.94336 -21.681
LeftToes  1.24767e-006 1.47042e-008 1.32732e-009
243
root  -1.77631 40.958 16.0957 -179.82 -60.0374 175.261
RightUpLeg  -3.9475 -14.0975 -23.5003
RightLeg  12.6389 2.07856 0.623968
RightFoot  19.7475 -3.36879 12.568
RightToes  -1.46203e-006 3.27826e-006 1.63871e-007
Spine  4.10633 -1.83694 -4.38059
Spine1  16.7898 -4.20528 6.12649
HEad  -20.9551 -34.1237 13.9453
LeftShoulder1  1.91232 -3.69867 -20.1021
LeftArm  26.76 13.5919 -47.251
LeftForeArm  115.134 -79.9692 -105.846
LeftHand  -0.145487 4.33446 14.8394
RightShoulder  4.06534 6.34013 35.396
RightArm  3.12927 -35.4638 31.9936
RightForeArm  79.8717 79.7755 76.7499
RightHand  0.113201 -9.17866 -4.76865
LeftUpLeg  0.14908 7.01318 12.7069
LeftLeg  12.1353 -0.955987 -0.461904
LeftFoot  12.5204 3.74451 -17.9624
LeftToes  1.24767e-006 1.47042e-008 1.32732e-009
